<?xml version="1.0" encoding="UTF-8" standalone="no"?>
<!-- Created with Inkscape (http://www.inkscape.org/) -->

<svg
   width="210mm"
   height="297mm"
   viewBox="0 0 210 297"
   version="1.1"
   id="svg1"
   inkscape:version="1.3 (1:1.3+202307231459+0e150ed6c4)"
   sodipodi:docname="poincare.svg"
   xmlns:inkscape="http://www.inkscape.org/namespaces/inkscape"
   xmlns:sodipodi="http://sodipodi.sourceforge.net/DTD/sodipodi-0.dtd"
   xmlns:xlink="http://www.w3.org/1999/xlink"
   xmlns="http://www.w3.org/2000/svg"
   xmlns:svg="http://www.w3.org/2000/svg">
  <sodipodi:namedview
     id="namedview1"
     pagecolor="#ffffff"
     bordercolor="#666666"
     borderopacity="1.0"
     inkscape:showpageshadow="2"
     inkscape:pageopacity="0.0"
     inkscape:pagecheckerboard="0"
     inkscape:deskcolor="#d1d1d1"
     inkscape:document-units="mm"
     inkscape:zoom="1.496633"
     inkscape:cx="433.64005"
     inkscape:cy="441.65804"
     inkscape:window-width="1848"
     inkscape:window-height="1016"
     inkscape:window-x="72"
     inkscape:window-y="27"
     inkscape:window-maximized="1"
     inkscape:current-layer="rect1" />
  <defs
     id="defs1">
    <marker
       style="overflow:visible"
       id="Triangle"
       refX="0"
       refY="0"
       orient="auto-start-reverse"
       inkscape:stockid="Triangle arrow"
       markerWidth="1"
       markerHeight="1"
       viewBox="0 0 1 1"
       inkscape:isstock="true"
       inkscape:collect="always"
       preserveAspectRatio="xMidYMid">
      <path
         transform="scale(0.5)"
         style="fill:context-stroke;fill-rule:evenodd;stroke:context-stroke;stroke-width:1pt"
         d="M 5.77,0 -2.88,5 V -5 Z"
         id="path135" />
    </marker>
    <marker
       style="overflow:visible"
       id="DartArrow"
       refX="0"
       refY="0"
       orient="auto-start-reverse"
       inkscape:stockid="Dart arrow"
       markerWidth="1"
       markerHeight="1"
       viewBox="0 0 1 1"
       inkscape:isstock="true"
       inkscape:collect="always"
       preserveAspectRatio="xMidYMid">
      <path
         style="fill:context-stroke;fill-rule:evenodd;stroke:none"
         d="M 0,0 5,-5 -12.5,0 5,5 Z"
         transform="scale(-0.5)"
         id="path6" />
    </marker>
    <linearGradient
       id="linearGradient8"
       inkscape:collect="always">
      <stop
         style="stop-color:#476efe;stop-opacity:0.65740627;"
         offset="0"
         id="stop8" />
      <stop
         style="stop-color:#4830f0;stop-opacity:0;"
         offset="1"
         id="stop9" />
    </linearGradient>
    <linearGradient
       id="linearGradient2"
       inkscape:collect="always">
      <stop
         style="stop-color:#000000;stop-opacity:1;"
         offset="0"
         id="stop2" />
      <stop
         style="stop-color:#000000;stop-opacity:0;"
         offset="1"
         id="stop3" />
    </linearGradient>
    <radialGradient
       inkscape:collect="always"
       xlink:href="#linearGradient2"
       id="radialGradient3"
       cx="102.53176"
       cy="121.87937"
       fx="102.53176"
       fy="121.87937"
       r="32.426601"
       gradientTransform="matrix(1,0,0,0.82503621,-13.963457,21.678048)"
       gradientUnits="userSpaceOnUse" />
    <linearGradient
       inkscape:collect="always"
       xlink:href="#linearGradient8"
       id="linearGradient9"
       x1="70.105164"
       y1="121.87937"
       x2="134.95837"
       y2="121.87937"
       gradientUnits="userSpaceOnUse"
       gradientTransform="translate(-7.6851988,-5.6330254)" />
    <linearGradient
       inkscape:collect="always"
       xlink:href="#linearGradient8"
       id="linearGradient32"
       gradientUnits="userSpaceOnUse"
       gradientTransform="translate(75.303443,-6.7140961)"
       x1="70.105164"
       y1="121.87937"
       x2="134.95837"
       y2="121.87937" />
  </defs>
  <g
     inkscape:label="Camada 1"
     inkscape:groupmode="layer"
     id="layer1">
    <g
       id="rect1">
      <path
         id="path18"
         style="fill:none;stroke:#000000;stroke-width:0.465;stroke-linecap:butt;stroke-linejoin:miter;stroke-dasharray:2.79, 0.465;stroke-dashoffset:0;stroke-opacity:1;marker-end:url(#DartArrow)"
         d="m 87.122093,138.81948 c -17.608386,-0.97758 -24.613382,-2.80586 -18.522389,-16.58603 1.266871,-2.86615 2.250453,-4.85491 21.869339,-6.07605"
         sodipodi:nodetypes="csc"
         inkscape:export-filename="Poincare_map.svg.png"
         inkscape:export-xdpi="96"
         inkscape:export-ydpi="96" />
      <path
         id="path11"
         style="fill:none;stroke:#000000;stroke-width:0.465;stroke-linecap:butt;stroke-linejoin:miter;stroke-dasharray:1.86, 0.465;stroke-dashoffset:0;stroke-opacity:1;marker-end:url(#DartArrow)"
         d="m 84.84232,146.12652 c -2.268292,-0.65806 -4.221569,-1.22851 -5.744867,-1.63048 -22.955419,-4.99459 -29.13339,-0.47914 -40.145252,-0.83271" />
      <path
         id="path16"
         style="fill:none;stroke:#000000;stroke-width:0.465;stroke-linecap:butt;stroke-linejoin:miter;stroke-dasharray:1.395, 0.465;stroke-dashoffset:0;stroke-opacity:1;marker-end:url(#DartArrow)"
         d="m 50.931576,99.193809 c 0,0 16.301787,0.651197 35.395737,4.268071 1.47202,0.27884 3.12372,0.5468 4.91721,0.81081" />
      <path
         style="color:#000000;fill:url(#linearGradient9);-inkscape-stroke:none"
         d="m 58.727542,96.955532 c 4.600718,-8.03992 11.062065,-11.087738 23.667062,-11.12603 12.745579,-0.03872 25.737816,2.01806 32.719486,8.99973 13.88633,13.886338 9.83266,35.287968 -4.05367,49.174298 -13.886337,13.88634 -67.17343,24.81735 -52.333196,-0.88431 14.840234,-25.70166 -9.753329,-29.11884 3.18e-4,-46.163688 z"
         id="path9"
         sodipodi:nodetypes="ssszzs" />
      <path
         style="color:#000000;fill:url(#radialGradient3);-inkscape-stroke:none"
         d="m 56.142012,95.480524 v 0.130859 53.374997 H 120.99552 V 95.480524 Z m 0.265625,0.263672 H 120.7299 V 148.72076 H 56.407637 Z"
         id="path10" />
      <circle
         style="fill:#a3a3a3;fill-opacity:1;stroke:#2e2e2e;stroke-width:0.465;stroke-dasharray:none;stroke-dashoffset:0;stroke-opacity:1"
         id="path21-5-2-7"
         cx="82.051163"
         cy="145.34366"
         r="1.0541403" />
      <path
         id="path19"
         style="fill:none;stroke:#000000;stroke-width:0.465;stroke-linecap:butt;stroke-linejoin:miter;stroke-dasharray:none;stroke-opacity:1;marker-end:url(#DartArrow)"
         d="m 90.469043,116.1574 c 0.18982,-0.0118 0.37899,-0.0237 0.5675,-0.0358 19.671367,-1.25565 38.730737,7.75837 29.958977,26.34359 -7.05421,14.94614 -20.17237,8.29756 -36.1532,3.6613"
         sodipodi:nodetypes="ccsc" />
      <circle
         style="fill:#a3a3a3;fill-opacity:1;stroke:#2e2e2e;stroke-width:0.465;stroke-dasharray:none;stroke-dashoffset:0;stroke-opacity:1"
         id="path21-5"
         cx="93.369682"
         cy="116.07475"
         r="1.0541403" />
      <path
         id="path9-9"
         style="color:#000000;fill:url(#linearGradient32);stroke:#000000;stroke-opacity:1;stroke-width:0.4;stroke-dasharray:none"
         d="m 154.63266,96.801242 v 45.095438 h 36.57503 V 96.801242 Z" />
      <circle
         style="fill:#a3a3a3;fill-opacity:1;stroke:#2e2e2e;stroke-width:0.465;stroke-dasharray:none;stroke-dashoffset:0;stroke-opacity:1"
         id="path21-5-22"
         cx="172.53369"
         cy="113.62215"
         r="1.0541403" />
      <circle
         style="fill:#a3a3a3;fill-opacity:1;stroke:#2e2e2e;stroke-width:0.465;stroke-dasharray:none;stroke-dashoffset:0;stroke-opacity:1"
         id="path21-5-3"
         cx="172.53369"
         cy="106.26003"
         r="1.0541403" />
      <circle
         style="fill:#a3a3a3;fill-opacity:1;stroke:#2e2e2e;stroke-width:0.465;stroke-dasharray:none;stroke-dashoffset:0;stroke-opacity:1"
         id="path21-5-22-3"
         cx="172.92018"
         cy="132.15895"
         r="1.0541403" />
      <circle
         style="fill:#a3a3a3;fill-opacity:1;stroke:#2e2e2e;stroke-width:0.465;stroke-dasharray:none;stroke-dashoffset:0;stroke-opacity:1"
         id="path21-5-3-6"
         cx="172.92018"
         cy="125.85516"
         r="1.0541403" />
      <circle
         style="fill:#a3a3a3;fill-opacity:1;stroke:#2e2e2e;stroke-width:0.465;stroke-dasharray:none;stroke-dashoffset:0;stroke-opacity:1"
         id="path21-5-2"
         cx="84.220314"
         cy="138.758"
         r="1.0541403" />
      <path
         id="path17"
         style="fill:none;stroke:#000000;stroke-width:0.465;stroke-linecap:butt;stroke-linejoin:miter;stroke-dasharray:none;stroke-opacity:1;marker-end:url(#DartArrow)"
         d="m 91.244523,104.27269 c 21.470357,3.1605 36.818537,4.50635 33.961527,18.41707 -3.09567,15.07273 -20.36719,17.31587 -36.637287,16.21801 -0.456,-0.0308 -0.93893,-0.0601 -1.44667,-0.0883"
         sodipodi:nodetypes="cssc" />
      <circle
         style="fill:#a3a3a3;fill-opacity:1;stroke:#2e2e2e;stroke-width:0.465;stroke-dasharray:none;stroke-dashoffset:0;stroke-opacity:1"
         id="path21"
         cx="93.959435"
         cy="104.79805"
         r="1.0541403" />
      <g
         inkscape:label=""
         transform="matrix(2.3538276,0,0,2.3538276,85.041642,88.786869)"
         id="g29">
        <g
           id="g28"
           transform="matrix(0.352778,0,0,0.352778,-0.884987,-0.623976)">
          <g
             style="fill:#000000;fill-opacity:1"
             id="g27">
            <g
               id="g26"
               transform="translate(1.993,8.8000002)">
              <path
                 style="stroke:none"
                 d="m 6.4375,-6.921875 c 0,-0.03125 -0.03125,-0.109375 -0.125,-0.109375 -0.046875,0 -0.046875,0.015625 -0.171875,0.15625 L 5.65625,-6.3125 c -0.25,-0.46875 -0.765625,-0.71875 -1.421875,-0.71875 -1.265625,0 -2.453125,1.15625 -2.453125,2.359375 0,0.796875 0.515625,1.265625 1.03125,1.40625 l 1.0625,0.28125 c 0.375,0.09375 0.921875,0.25 0.921875,1.0625 0,0.890625 -0.8125,1.828125 -1.796875,1.828125 -0.640625,0 -1.75,-0.21875 -1.75,-1.453125 0,-0.234375 0.0625,-0.484375 0.0625,-0.53125 0.015625,-0.046875 0.015625,-0.0625 0.015625,-0.078125 0,-0.09375 -0.0625,-0.109375 -0.109375,-0.109375 -0.046875,0 -0.078125,0.015625 -0.109375,0.046875 -0.03125,0.03125 -0.59375,2.3125 -0.59375,2.34375 0,0.046875 0.046875,0.09375 0.109375,0.09375 0.046875,0 0.0625,-0.015625 0.1875,-0.15625 L 1.296875,-0.5 c 0.421875,0.578125 1.109375,0.71875 1.6875,0.71875 1.359375,0 2.53125,-1.328125 2.53125,-2.5625 0,-0.6875 -0.34375,-1.03125 -0.484375,-1.171875 C 4.796875,-3.734375 4.640625,-3.78125 3.765625,-4 3.53125,-4.0625 3.1875,-4.171875 3.09375,-4.1875 2.828125,-4.28125 2.484375,-4.5625 2.484375,-5.09375 c 0,-0.8125 0.796875,-1.65625 1.75,-1.65625 0.8125,0 1.421875,0.4375 1.421875,1.546875 0,0.3125 -0.03125,0.5 -0.03125,0.5625 0,0 0,0.09375 0.109375,0.09375 0.109375,0 0.125,-0.03125 0.15625,-0.203125 z m 0,0"
                 id="path25" />
            </g>
          </g>
          <g
             style="fill:#000000;fill-opacity:1"
             id="g6">
            <g
               id="use5"
               transform="translate(8.1020002,10.294)">
              <path
                 style="stroke:none"
                 d="m 0.515625,0.84375 c -0.046875,0.203125 -0.0625,0.25 -0.328125,0.25 -0.09375,0 -0.1875,0 -0.1875,0.15625 0,0.078125 0.0625,0.109375 0.09375,0.109375 0.171875,0 0.40625,-0.03125 0.59375,-0.03125 0.234375,0 0.5,0.03125 0.734375,0.03125 0.0625,0 0.140625,-0.03125 0.140625,-0.15625 0,-0.109375 -0.09375,-0.109375 -0.1875,-0.109375 -0.15625,0 -0.34375,0 -0.34375,-0.078125 0,-0.03125 0.0625,-0.21875 0.078125,-0.3125 0.09375,-0.375 0.1875,-0.75 0.265625,-1.046875 0.078125,0.140625 0.296875,0.40625 0.71875,0.40625 0.84375,0 1.78125,-0.9375 1.78125,-1.96875 0,-0.8125 -0.5625,-1.171875 -1.03125,-1.171875 -0.4375,0 -0.8125,0.296875 -1,0.5 -0.109375,-0.40625 -0.5,-0.5 -0.71875,-0.5 -0.265625,0 -0.4375,0.1875 -0.546875,0.375 -0.140625,0.234375 -0.25,0.65625 -0.25,0.703125 0,0.078125 0.09375,0.078125 0.125,0.078125 0.09375,0 0.09375,-0.015625 0.140625,-0.203125 0.109375,-0.40625 0.25,-0.75 0.515625,-0.75 0.1875,0 0.234375,0.15625 0.234375,0.34375 0,0.078125 -0.015625,0.15625 -0.03125,0.203125 z M 1.84375,-2.234375 C 2.25,-2.78125 2.59375,-2.875 2.8125,-2.875 c 0.28125,0 0.515625,0.203125 0.515625,0.671875 0,0.28125 -0.15625,1 -0.359375,1.40625 -0.1875,0.34375 -0.515625,0.671875 -0.875,0.671875 -0.5,0 -0.625,-0.53125 -0.625,-0.609375 0,-0.03125 0.015625,-0.078125 0.015625,-0.109375 z m 0,0"
                 id="path7" />
            </g>
          </g>
        </g>
      </g>
      <g
         inkscape:label=""
         transform="matrix(2.5541993,0,0,2.5541993,60.47727,74.392728)"
         id="g31">
        <g
           id="g30"
           transform="matrix(0.352778,0,0,0.352778,-0.884987,-0.623976)">
          <g
             style="fill:#000000;fill-opacity:1"
             id="g3">
            <g
               id="use2"
               transform="translate(1.993,8.8000002)">
              <path
                 style="stroke:none"
                 d="m 6.4375,-6.921875 c 0,-0.03125 -0.03125,-0.109375 -0.125,-0.109375 -0.046875,0 -0.046875,0.015625 -0.171875,0.15625 L 5.65625,-6.3125 c -0.25,-0.46875 -0.765625,-0.71875 -1.421875,-0.71875 -1.265625,0 -2.453125,1.15625 -2.453125,2.359375 0,0.796875 0.515625,1.265625 1.03125,1.40625 l 1.0625,0.28125 c 0.375,0.09375 0.921875,0.25 0.921875,1.0625 0,0.890625 -0.8125,1.828125 -1.796875,1.828125 -0.640625,0 -1.75,-0.21875 -1.75,-1.453125 0,-0.234375 0.0625,-0.484375 0.0625,-0.53125 0.015625,-0.046875 0.015625,-0.0625 0.015625,-0.078125 0,-0.09375 -0.0625,-0.109375 -0.109375,-0.109375 -0.046875,0 -0.078125,0.015625 -0.109375,0.046875 -0.03125,0.03125 -0.59375,2.3125 -0.59375,2.34375 0,0.046875 0.046875,0.09375 0.109375,0.09375 0.046875,0 0.0625,-0.015625 0.1875,-0.15625 L 1.296875,-0.5 c 0.421875,0.578125 1.109375,0.71875 1.6875,0.71875 1.359375,0 2.53125,-1.328125 2.53125,-2.5625 0,-0.6875 -0.34375,-1.03125 -0.484375,-1.171875 C 4.796875,-3.734375 4.640625,-3.78125 3.765625,-4 3.53125,-4.0625 3.1875,-4.171875 3.09375,-4.1875 2.828125,-4.28125 2.484375,-4.5625 2.484375,-5.09375 c 0,-0.8125 0.796875,-1.65625 1.75,-1.65625 0.8125,0 1.421875,0.4375 1.421875,1.546875 0,0.3125 -0.03125,0.5 -0.03125,0.5625 0,0 0,0.09375 0.109375,0.09375 0.109375,0 0.125,-0.03125 0.15625,-0.203125 z m 0,0"
                 id="path3" />
            </g>
          </g>
        </g>
      </g>
      <g
         inkscape:label=""
         transform="matrix(1.4253712,0,0,1.4253712,41.31671,96.451245)"
         id="g32">
        <g
           id="surface1"
           transform="matrix(0.352778,0,0,0.352778,-0.806234,-0.698721)">
          <g
             style="fill:#000000;fill-opacity:1"
             id="g8">
            <g
               id="use7"
               transform="translate(1.859,9.4650002)">
              <path
                 style="stroke:none"
                 d="m 5.359375,-5.9375 c -0.140625,0.140625 -0.46875,0.421875 -0.46875,0.59375 0,0.09375 0.09375,0.203125 0.1875,0.203125 0.09375,0 0.140625,-0.078125 0.203125,-0.140625 C 5.390625,-5.421875 5.625,-5.703125 6.0625,-5.921875 6.125,-5.96875 6.234375,-6.015625 6.234375,-6.125 6.234375,-6.234375 6.15625,-6.28125 6.09375,-6.328125 5.875,-6.484375 5.765625,-6.65625 5.6875,-6.890625 5.65625,-6.984375 5.625,-7.125 5.484375,-7.125 c -0.140625,0 -0.203125,0.140625 -0.203125,0.21875 0,0.046875 0.078125,0.359375 0.234375,0.578125 H 2.15625 c -0.15625,0 -0.34375,0 -0.34375,0.203125 0,0.1875 0.1875,0.1875 0.34375,0.1875 z m 0,0"
                 id="path12" />
            </g>
          </g>
          <g
             style="fill:#000000;fill-opacity:1"
             id="g9">
            <g
               id="use8"
               transform="translate(1.9885139,9.4650002)">
              <path
                 style="stroke:none"
                 d="M 3.328125,-3.015625 C 3.390625,-3.265625 3.625,-4.1875 4.3125,-4.1875 c 0.046875,0 0.296875,0 0.5,0.125 C 4.53125,-4 4.34375,-3.765625 4.34375,-3.515625 c 0,0.15625 0.109375,0.34375 0.375,0.34375 0.21875,0 0.53125,-0.171875 0.53125,-0.578125 0,-0.515625 -0.578125,-0.65625 -0.921875,-0.65625 -0.578125,0 -0.921875,0.53125 -1.046875,0.75 -0.25,-0.65625 -0.78125,-0.75 -1.078125,-0.75 -1.03125,0 -1.609375,1.28125 -1.609375,1.53125 0,0.109375 0.109375,0.109375 0.125,0.109375 0.078125,0 0.109375,-0.03125 0.125,-0.109375 0.34375,-1.0625 1,-1.3125 1.34375,-1.3125 0.1875,0 0.53125,0.09375 0.53125,0.671875 0,0.3125 -0.171875,0.96875 -0.53125,2.375 -0.15625,0.609375 -0.515625,1.03125 -0.953125,1.03125 -0.0625,0 -0.28125,0 -0.5,-0.125 0.25,-0.0625 0.46875,-0.265625 0.46875,-0.546875 0,-0.265625 -0.21875,-0.34375 -0.359375,-0.34375 -0.3125,0 -0.546875,0.25 -0.546875,0.578125 0,0.453125 0.484375,0.65625 0.921875,0.65625 0.671875,0 1.03125,-0.703125 1.046875,-0.75 0.125,0.359375 0.484375,0.75 1.078125,0.75 1.03125,0 1.59375,-1.28125 1.59375,-1.53125 0,-0.109375 -0.078125,-0.109375 -0.109375,-0.109375 -0.09375,0 -0.109375,0.046875 -0.140625,0.109375 -0.328125,1.078125 -1,1.3125 -1.3125,1.3125 -0.390625,0 -0.546875,-0.3125 -0.546875,-0.65625 0,-0.21875 0.046875,-0.4375 0.15625,-0.875 z m 0,0"
                 id="path13" />
            </g>
          </g>
          <g
             style="fill:#000000;fill-opacity:1"
             id="g10">
            <g
               id="use9"
               transform="translate(7.6859999,9.4650002)">
              <path
                 style="stroke:none"
                 d="m 3.296875,2.390625 c 0,-0.03125 0,-0.046875 -0.171875,-0.21875 C 1.890625,0.921875 1.5625,-0.96875 1.5625,-2.5 c 0,-1.734375 0.375,-3.46875 1.609375,-4.703125 0.125,-0.125 0.125,-0.140625 0.125,-0.171875 0,-0.078125 -0.03125,-0.109375 -0.09375,-0.109375 -0.109375,0 -1,0.6875 -1.59375,1.953125 -0.5,1.09375 -0.625,2.203125 -0.625,3.03125 0,0.78125 0.109375,1.984375 0.65625,3.125 C 2.25,1.84375 3.09375,2.5 3.203125,2.5 c 0.0625,0 0.09375,-0.03125 0.09375,-0.109375 z m 0,0"
                 id="path14" />
            </g>
          </g>
          <g
             style="fill:#000000;fill-opacity:1"
             id="g11">
            <g
               id="use10"
               transform="translate(11.561,9.4650002)">
              <path
                 style="stroke:none"
                 d="m 2.046875,-3.984375 h 0.9375 c 0.203125,0 0.3125,0 0.3125,-0.203125 0,-0.109375 -0.109375,-0.109375 -0.28125,-0.109375 h -0.875 C 2.5,-5.71875 2.546875,-5.90625 2.546875,-5.96875 c 0,-0.171875 -0.125,-0.265625 -0.296875,-0.265625 -0.03125,0 -0.3125,0 -0.390625,0.359375 L 1.46875,-4.296875 h -0.9375 c -0.203125,0 -0.296875,0 -0.296875,0.1875 0,0.125 0.078125,0.125 0.28125,0.125 h 0.875 C 0.671875,-1.15625 0.625,-0.984375 0.625,-0.8125 0.625,-0.265625 1,0.109375 1.546875,0.109375 2.5625,0.109375 3.125,-1.34375 3.125,-1.421875 3.125,-1.53125 3.046875,-1.53125 3.015625,-1.53125 2.921875,-1.53125 2.90625,-1.5 2.859375,-1.390625 2.4375,-0.34375 1.90625,-0.109375 1.5625,-0.109375 c -0.203125,0 -0.3125,-0.125 -0.3125,-0.453125 0,-0.25 0.03125,-0.3125 0.0625,-0.484375 z m 0,0"
                 id="path15" />
            </g>
          </g>
          <g
             style="fill:#000000;fill-opacity:1"
             id="g12">
            <g
               id="use11"
               transform="translate(15.158,9.4650002)">
              <path
                 style="stroke:none"
                 d="m 2.875,-2.5 c 0,-0.765625 -0.109375,-1.96875 -0.65625,-3.109375 -0.59375,-1.21875 -1.453125,-1.875 -1.546875,-1.875 -0.0625,0 -0.109375,0.046875 -0.109375,0.109375 0,0.03125 0,0.046875 0.1875,0.234375 0.984375,0.984375 1.546875,2.5625 1.546875,4.640625 0,1.71875 -0.359375,3.46875 -1.59375,4.71875 C 0.5625,2.34375 0.5625,2.359375 0.5625,2.390625 0.5625,2.453125 0.609375,2.5 0.671875,2.5 0.765625,2.5 1.671875,1.8125 2.25,0.546875 2.765625,-0.546875 2.875,-1.65625 2.875,-2.5 Z m 0,0"
                 id="path31" />
            </g>
          </g>
        </g>
      </g>
      <path
         style="fill:none;stroke:#000000;stroke-width:0.765;stroke-linecap:butt;stroke-linejoin:miter;stroke-opacity:1;marker-end:url(#Triangle);stroke-dasharray:none"
         d="m 129.92974,116.7707 c 16.84228,-0.11222 13.47637,-6.25659 8.73889,-6.25659 -4.73749,0 -0.0886,6.31209 7.91977,6.01074"
         id="path32"
         sodipodi:nodetypes="csc" />
    </g>
  </g>
</svg>
